<svg width="154" height="37" viewBox="0 0 154 37" fill="none" xmlns="http://www.w3.org/2000/svg">
	<g clip-path="url(#clip0_376_16676)">
		<path d="M46.5527 10.9785H49.7867V27.6937H46.5527V10.9785Z" fill="white"></path>
		<path
			d="M53.7729 18.9867C53.7729 13.3983 57.1072 10.5293 62.071 10.5293C67.0348 10.5293 70.3691 13.3734 70.3691 18.9867V27.6935H67.1351V18.9867C67.1351 15.3692 65.1295 13.4981 62.071 13.4981C59.0125 13.4981 57.0069 15.3692 57.0069 18.9867V27.6935H53.7729V18.9867Z"
			fill="white"></path>
		<path
			d="M74.9316 29.6894H78.2408C79.0179 31.6104 80.9984 32.4586 83.4553 32.4586C86.8898 32.4586 89.1711 30.837 89.1711 26.4711V24.5501C88.0179 26.7206 85.6614 27.9929 82.8536 27.9929C78.4915 27.9929 74.355 25.0241 74.355 19.3359C74.355 14.2466 78.0904 10.5293 83.4051 10.5293C88.7199 10.5293 92.3801 14.0969 92.3801 19.4607V26.3463C92.3801 32.7829 88.4441 35.2777 83.4553 35.2777C79.3188 35.2777 76.1099 33.5563 74.9316 29.6894ZM89.1711 19.3359C89.1711 15.943 86.8647 13.5231 83.3801 13.5231C79.9204 13.5231 77.589 15.968 77.589 19.3359C77.589 22.7039 79.8954 24.9992 83.3801 24.9992C86.8397 24.9742 89.1711 22.7039 89.1711 19.3359Z"
			fill="#4F7FE5"></path>
		<path
			d="M96.1909 19.4607C96.1909 14.2216 99.9263 10.5293 105.266 10.5293C110.531 10.5293 114.216 14.1218 114.216 19.4607V27.6935H111.258V24.0262C110.13 26.7455 107.648 28.1177 104.715 28.1177C100.327 28.1426 96.1909 24.9742 96.1909 19.4607ZM111.007 19.3359C111.007 15.943 108.701 13.5231 105.216 13.5231C101.756 13.5231 99.4249 15.968 99.4249 19.3359C99.4249 22.7039 101.731 25.1488 105.216 25.1488C108.701 25.1488 111.007 22.7039 111.007 19.3359Z"
			fill="#4F7FE5"></path>
		<path d="M118.829 3.64355H122.063V27.6935H118.829V3.64355Z" fill="#4F7FE5"></path>
		<path
			d="M126.023 19.4607C126.023 14.2216 129.759 10.5293 135.099 10.5293C140.363 10.5293 144.048 14.1218 144.048 19.4607V27.6935H141.09V24.0262C139.962 26.7455 137.48 28.1177 134.547 28.1177C130.16 28.1426 126.023 24.9742 126.023 19.4607ZM140.865 19.3359C140.865 15.943 138.558 13.5231 135.074 13.5231C131.614 13.5231 129.282 15.968 129.282 19.3359C129.282 22.7039 131.589 25.1488 135.074 25.1488C138.533 25.1488 140.865 22.7039 140.865 19.3359Z"
			fill="#4F7FE5"></path>
		<path
			d="M18.6003 36.5249C28.5968 36.5249 36.7006 28.4605 36.7006 18.5125C36.7006 8.56446 28.5968 0.5 18.6003 0.5C8.60377 0.5 0.5 8.56446 0.5 18.5125C0.5 28.4605 8.60377 36.5249 18.6003 36.5249Z"
			fill="#4F7FE5"></path>
		<path d="M20.3051 7.98438H16.8706V18.4875H20.3051V7.98438Z" fill="white"></path>
		<path
			d="M27.4249 19.4857C27.4249 25.4233 23.8901 28.4919 18.6004 28.4919C13.3107 28.4919 9.77588 25.4732 9.77588 19.4857V10.2549H13.2104V19.5106C13.2104 23.3526 15.3413 25.3484 18.6004 25.3484C21.8594 25.3484 23.9904 23.3775 23.9904 19.5106V10.2549H27.4249V19.4857Z"
			fill="white"></path>
		<path
			d="M147.985 13.2486C147.985 11.7019 149.188 10.5293 150.743 10.5293C152.297 10.5293 153.5 11.7019 153.5 13.2486C153.5 14.8204 152.322 15.9929 150.743 15.9929C149.163 15.9929 147.985 14.8204 147.985 13.2486ZM153.099 13.2486C153.099 11.9264 152.096 10.9285 150.768 10.9285C149.439 10.9285 148.436 11.9264 148.436 13.2486C148.436 14.5958 149.439 15.5937 150.768 15.5937C152.071 15.5937 153.099 14.5958 153.099 13.2486ZM149.715 14.7455V11.7019H150.818C151.495 11.7019 151.921 12.0511 151.921 12.6249C151.921 13.0241 151.72 13.3484 151.294 13.4981L151.996 14.7455H151.495L150.868 13.5979H150.166V14.7455H149.715ZM150.818 12.126H150.166V13.1987H150.818C151.219 13.1987 151.444 13.0241 151.444 12.6499C151.444 12.2757 151.219 12.126 150.818 12.126Z"
			fill="white"></path>
	</g>
	<defs>
		<clipPath id="clip0_376_16676">
			<rect width="153" height="36" fill="white" transform="translate(0.5 0.5)"></rect>
		</clipPath>
	</defs>
</svg>
