<svg width="142" height="34" viewBox="0 0 142 34" fill="none" xmlns="http://www.w3.org/2000/svg">
<path d="M42.7441 9.9729H45.7458V25.5629H42.7441V9.9729Z" fill="#494949"/>
<path d="M49.4463 17.442C49.4463 12.2299 52.541 9.55396 57.1482 9.55396C61.7554 9.55396 64.8502 12.2066 64.8502 17.442V25.5628H61.8485V17.442C61.8485 14.0681 59.987 12.3229 57.1482 12.3229C54.3094 12.3229 52.448 14.0681 52.448 17.442V25.5628H49.4463V17.442Z" fill="#494949"/>
<path d="M69.085 27.4243H72.1565C72.8778 29.216 74.716 30.0071 76.9963 30.0071C80.1842 30.0071 82.3016 28.4947 82.3016 24.4227V22.631C81.2312 24.6553 79.044 25.842 76.4379 25.842C72.3891 25.842 68.5498 23.0731 68.5498 17.7678C68.5498 13.021 72.0168 9.55396 76.9498 9.55396C81.8828 9.55396 85.28 12.8814 85.28 17.8842V24.3063C85.28 30.3096 81.6268 32.6365 76.9963 32.6365C73.157 32.6365 70.1786 31.031 69.085 27.4243ZM82.3016 17.7678C82.3016 14.6033 80.1609 12.3462 76.9265 12.3462C73.7155 12.3462 71.5515 14.6265 71.5515 17.7678C71.5515 20.9091 73.6922 23.0498 76.9265 23.0498C80.1376 23.0265 82.3016 20.9091 82.3016 17.7678Z" fill="#4F7FE5"/>
<path d="M88.8164 17.8842C88.8164 12.9977 92.2834 9.55396 97.2397 9.55396C102.126 9.55396 105.547 12.9046 105.547 17.8842V25.5628H102.801V22.1423C101.754 24.6786 99.4502 25.9584 96.7278 25.9584C92.6557 25.9817 88.8164 23.0265 88.8164 17.8842ZM102.568 17.7678C102.568 14.6033 100.427 12.3462 97.1931 12.3462C93.9821 12.3462 91.8181 14.6265 91.8181 17.7678C91.8181 20.9091 93.9588 23.1894 97.1931 23.1894C100.427 23.1894 102.568 20.9091 102.568 17.7678Z" fill="#4F7FE5"/>
<path d="M109.828 3.13184H112.83V25.5629H109.828V3.13184Z" fill="#4F7FE5"/>
<path d="M116.507 17.8842C116.507 12.9977 119.974 9.55396 124.93 9.55396C129.817 9.55396 133.237 12.9046 133.237 17.8842V25.5628H130.491V22.1423C129.444 24.6786 127.141 25.9584 124.418 25.9584C120.346 25.9817 116.507 23.0265 116.507 17.8842ZM130.282 17.7678C130.282 14.6033 128.141 12.3462 124.907 12.3462C121.696 12.3462 119.532 14.6265 119.532 17.7678C119.532 20.9091 121.672 23.1894 124.907 23.1894C128.118 23.1894 130.282 20.9091 130.282 17.7678Z" fill="#4F7FE5"/>
<path d="M16.8 33.8C26.0784 33.8 33.6 26.2783 33.6 17C33.6 7.72157 26.0784 0.199951 16.8 0.199951C7.52162 0.199951 0 7.72157 0 17C0 26.2783 7.52162 33.8 16.8 33.8Z" fill="#4F7FE5"/>
<path d="M18.3821 7.18066H15.1943V16.9768H18.3821V7.18066Z" fill="white"/>
<path d="M24.9905 17.9075C24.9905 23.4455 21.7097 26.3075 16.8 26.3075C11.8903 26.3075 8.60938 23.492 8.60938 17.9075V9.2981H11.7972V17.9308C11.7972 21.5142 13.775 23.3757 16.8 23.3757C19.8249 23.3757 21.8027 21.5374 21.8027 17.9308V9.2981H24.9905V17.9075Z" fill="white"/>
<path d="M136.89 12.0902C136.89 10.6476 138.007 9.55396 139.449 9.55396C140.892 9.55396 142.009 10.6476 142.009 12.0902C142.009 13.5562 140.915 14.6498 139.449 14.6498C137.983 14.6498 136.89 13.5562 136.89 12.0902ZM141.636 12.0902C141.636 10.857 140.706 9.92625 139.472 9.92625C138.239 9.92625 137.308 10.857 137.308 12.0902C137.308 13.3468 138.239 14.2775 139.472 14.2775C140.682 14.2775 141.636 13.3468 141.636 12.0902ZM138.495 13.4864V10.6476H139.519C140.147 10.6476 140.543 10.9733 140.543 11.5085C140.543 11.8808 140.357 12.1833 139.961 12.3229L140.613 13.4864H140.147L139.566 12.416H138.914V13.4864H138.495ZM139.519 11.0432H138.914V12.0437H139.519C139.891 12.0437 140.101 11.8808 140.101 11.5318C140.101 11.1828 139.891 11.0432 139.519 11.0432Z" fill="#494949"/>
</svg>
