<svg width="34" height="34" viewBox="0 0 34 34" fill="none" >
    <path d="M16.8 33.8C26.0784 33.8 33.6 26.2783 33.6 17C33.6 7.72157 26.0784 0.199951 16.8 0.199951C7.52162 0.199951 0 7.72157 0 17C0 26.2783 7.52162 33.8 16.8 33.8Z" fill="#4F7FE5"/>
    <path d="M18.3821 7.18066H15.1943V16.9768H18.3821V7.18066Z" fill="white"/>
    <path d="M24.9905 17.9075C24.9905 23.4455 21.7097 26.3075 16.8 26.3075C11.8903 26.3075 8.60938 23.492 8.60938 17.9075V9.2981H11.7972V17.9308C11.7972 21.5142 13.775 23.3757 16.8 23.3757C19.8249 23.3757 21.8027 21.5374 21.8027 17.9308V9.2981H24.9905V17.9075Z" fill="white"/>
</svg>
    