<svg width="40" height="40" viewBox="0 0 40 40" fill="none" xmlns="http://www.w3.org/2000/svg">
	<path
		d="M31.875 24.75C29.375 24.75 27.25 26 26 27.875L14.75 21.875C15.125 21 15.25 20.125 15.25 19.25C15.25 18.5 15.125 17.75 14.875 17L25.875 11.875C26 12.125 26.25 12.375 26.5 12.75C27.875 14.375 29.875 15.375 32 15.375C36 15.375 39.125 12.125 39.125 8.25C39.125 4.25 35.875 1.125 32 1.125C28 1.125 24.875 4.375 24.875 8.25C24.875 8.75 25.25 9 25.75 9C26.25 9 26.625 8.625 26.625 8.25C26.625 5.25 29.125 2.75 32.125 2.75C35.125 2.75 37.5 5 37.5 8.125C37.5 11.25 35 13.625 32 13.625C30.375 13.625 28.75 12.875 27.75 11.625C27.375 11.25 27.125 10.875 27 10.5C26.875 10.25 26.75 10.125 26.5 10.125C26.25 10 26.125 10 25.875 10.125L14.25 15.5C13 13.5 10.75 12.125 8.125 12.125C4.125 12.125 1 15.375 1 19.25C1 23.25 4.25 26.375 8.125 26.375C10.625 26.375 12.75 25.125 14 23.25L25.25 29.25C24.875 30.125 24.75 31 24.75 31.875C24.75 35.875 28 39 31.875 39C35.875 39 39 35.75 39 31.875C39.125 28 35.875 24.75 31.875 24.75ZM8.125 24.75C5.125 24.75 2.625 22.25 2.625 19.25C2.625 16.25 5.125 13.75 8.125 13.75C10.375 13.75 12.25 15 13.125 17C13.5 17.75 13.625 18.5 13.625 19.375C13.625 22.25 11.125 24.75 8.125 24.75ZM31.875 37.5C28.875 37.5 26.375 35 26.375 32C26.375 29 28.875 26.5 31.875 26.5C34.875 26.5 37.375 29 37.375 32C37.375 35 35 37.5 31.875 37.5Z"
		fill="white" />
</svg>
	