<svg width="40" height="40" viewBox="0 0 40 40" fill="none" xmlns="http://www.w3.org/2000/svg">
	<path d="M32.875 18.375C32.5 12.125 27.25 7.125 20.875 7.125C15.75 7.125 11.125 10.375 9.5 15.125C4.625 15.25 0.75 19.125 0.75 24C0.75 28.875 4.75 32.875 9.625 32.875H32.125C36.125 32.875 39.375 29.625 39.375 25.625C39.375 21.875 36.5 18.875 32.875 18.375ZM32.125 31.25H9.625C5.625 31.25 2.375 28 2.375 24C2.375 20 5.625 16.75 9.625 16.75C9.75 16.75 9.875 16.75 9.875 16.75C10.25 16.875 10.75 16.625 10.875 16.125C12.125 11.75 16.25 8.625 20.875 8.625C26.625 8.625 31.375 13.25 31.375 19.125C31.375 19.625 31.75 20 32.25 20C35.375 20 37.875 22.5 37.875 25.625C37.875 28.75 35.125 31.25 32.125 31.25Z" fill="white"/>
	</svg>
	