<svg width="40" height="40" viewBox="0 0 40 40" fill="none" xmlns="http://www.w3.org/2000/svg">
	<g clip-path="url(#clip0_176_8223)">
		<path
			d="M20 39.5C9.25 39.5 0.5 30.75 0.5 20C0.5 9.25 9.25 0.5 20 0.5C30.75 0.5 39.5 9.25 39.5 20C39.5 30.75 30.75 39.5 20 39.5ZM20 2.125C10.125 2.125 2.125 10.125 2.125 20C2.125 29.875 10.125 37.875 20 37.875C29.875 37.875 37.875 29.875 37.875 20C37.875 10.125 29.875 2.125 20 2.125Z"
			fill="white" />
		<path
			d="M20 30.5C14.25 30.5 9.5 25.75 9.5 20C9.5 14.25 14.25 9.5 20 9.5C25.75 9.5 30.5 14.25 30.5 20C30.5 25.75 25.75 30.5 20 30.5ZM20 11.125C15.125 11.125 11.125 15.125 11.125 20C11.125 24.875 15.125 28.875 20 28.875C24.875 28.875 28.875 24.875 28.875 20C28.875 15.125 24.875 11.125 20 11.125Z"
			fill="white" />
	</g>
	<defs>
		<clipPath id="clip0_176_8223">
			<rect width="40" height="40" fill="white" />
		</clipPath>
	</defs>
</svg>
	