<svg width="40" height="40" viewBox="0 0 40 40" fill="none" xmlns="http://www.w3.org/2000/svg">
	<g clip-path="url(#clip0_148_1412)">
		<path
			d="M24.75 22.125C28.5 20.375 31.125 16.5 31.125 12C31.125 5.875 26.125 0.875 20 0.875C13.875 0.875 8.875 5.875 8.875 12C8.875 16.5 11.5 20.25 15.25 22.125C7.125 24 0.875 30.625 0.875 38.375C0.875 38.875 1.25 39.25 1.75 39.25C2.125 39.125 2.5 38.75 2.5 38.375C2.5 30.125 10.5 23.25 20 23.25C29.5 23.25 37.5 30.125 37.5 38.375C37.5 38.875 37.875 39.25 38.375 39.25C38.875 39.25 39.25 38.875 39.25 38.375C39.125 30.75 32.875 24 24.75 22.125ZM10.5 12C10.5 6.75 14.75 2.5 20 2.5C25.25 2.5 29.5 6.75 29.5 12C29.5 17.25 25.25 21.5 20 21.5C14.75 21.625 10.5 17.25 10.5 12Z"
			fill="white" />
	</g>
	<defs>
		<clipPath id="clip0_148_1412">
			<rect width="40" height="40" fill="white" />
		</clipPath>
	</defs>
</svg>
	