<svg width="32" height="33" viewBox="0 0 32 33" fill="none" xmlns="http://www.w3.org/2000/svg">
	<rect y="0.5" width="32" height="32" rx="6" fill="white"></rect>
	<path
		d="M6.04937 7.71486C6.04116 7.72716 6.70576 8.6338 7.52215 9.72506C8.33854 10.8163 10.0739 13.1383 11.3785 14.8818L13.7497 18.053L13.5979 18.2253C13.5117 18.3197 11.7682 20.2027 9.72517 22.4099C7.68215 24.6211 6.00424 26.4426 6.00014 26.4631C5.99193 26.4836 6.34885 26.5 6.86165 26.4959L7.73548 26.4918L8.02265 26.1759C8.18265 26.0036 9.66773 24.3995 11.3251 22.6068C12.9825 20.814 14.3856 19.2961 14.443 19.2304L14.5456 19.1115L15.366 20.2109C15.8173 20.814 17.0604 22.4796 18.127 23.9072L20.0716 26.5H23.0458C25.5196 26.5 26.016 26.4918 25.9996 26.4467C25.9873 26.4138 25.2325 25.3964 24.3217 24.178C23.411 22.9637 22.3689 21.5688 22.0079 21.0848C21.6428 20.6007 20.5721 19.1607 19.6203 17.893C18.6685 16.6213 17.8891 15.5629 17.8891 15.5464C17.8891 15.5177 22.9187 10.0574 24.6294 8.23176L25.1176 7.71075H24.2191L23.3248 7.71486L22.2787 8.84713C21.7043 9.47071 20.2972 10.9968 19.1485 12.2317L17.0686 14.4798L14.5456 11.1076L12.0184 7.73126L9.04416 7.71075C7.40728 7.69844 6.05757 7.70255 6.04937 7.71486ZM13.0974 11.3496C14.0697 12.6542 15.5712 14.6603 16.4327 15.8131C17.2942 16.9618 19.2059 19.5217 20.6828 21.495C22.1597 23.4724 23.3822 25.1093 23.4028 25.138C23.4274 25.1749 23.1361 25.1872 22.0736 25.1872H20.7156L18.0244 21.5853C11.8133 13.286 8.67904 9.09328 8.64212 9.03174C8.61751 8.99482 8.89647 8.98251 9.96721 8.98251H11.3251L13.0974 11.3496Z"
		fill="black"></path>
</svg>
